<svg version="1.1" xmlns="http://www.w3.org/2000/svg" xmlns:xlink="http://www.w3.org/1999/xlink" x="0px" y="0px" viewBox="0 0 22 22" style="enable-background:new 0 0 22 22; width: 22px; height: 22px;" xml:space="preserve"><path  fill='#fff' d="M17.9 2H4.1C3 2 2 3 2 4.1v13.7C2 19 3 20 4.1 20h13.7c1.2 0 2.1-1 2.1-2.1V4.1C20 3 19 2 17.9 2zM15.5 4.3h1.7c.3 0 .6.3.6.6v1.7c0 .3-.3.6-.6.6h-1.7c-.3 0-.6-.3-.6-.6V4.8C14.9 4.5 15.2 4.3 15.5 4.3zM11 7.6c1.9 0 3.5 1.5 3.5 3.5 0 1.9-1.5 3.5-3.5 3.5-1.9 0-3.5-1.5-3.5-3.5C7.6 9.1 9.1 7.6 11 7.6zM17.8 18.3H4.3c-.3 0-.6-.3-.6-.6V9.3h2.3C5.6 9.7 5.5 10.5 5.5 11c0 3 2.5 5.5 5.5 5.5 3 0 5.5-2.5 5.5-5.5 0-.5-.1-1.3-.4-1.7h2.3v8.4C18.3 18.1 18.1 18.3 17.8 18.3z"></path></svg>